<svg width="420" height="120" viewBox="0 0 420 120" xmlns="http://www.w3.org/2000/svg" role="img" aria-label="SakshamBharat logo">
  <defs>
    <linearGradient id="logoGradient" x1="0" y1="0" x2="1" y2="1">
      <stop offset="0%" stop-color="#F47F2F"/>
      <stop offset="100%" stop-color="#F8C14B"/>
    </linearGradient>
    <filter id="iconShadow" x="-20%" y="-20%" width="140%" height="140%">
      <feDropShadow dx="0" dy="8" stdDeviation="12" flood-color="#000" flood-opacity="0.12"/>
    </filter>
  </defs>
  <rect width="420" height="120" fill="none" />
  <g transform="translate(24 20)">
    <g filter="url(#iconShadow)">
      <path d="M44 16 C56 16 66 26 66 38 C66 50 56 60 44 60 C32 60 22 50 22 38 C22 26 32 16 44 16 Z" fill="url(#logoGradient)" opacity="0.95" />
      <path d="M40 16 L78 46 L44 86" fill="none" stroke="#1E3A8A" stroke-width="10" stroke-linecap="round" stroke-linejoin="round" opacity="0.9" />
      <circle cx="26" cy="38" r="9" fill="#FFFFFF" opacity="0.9" />
      <circle cx="66" cy="38" r="9" fill="#FFFFFF" opacity="0.9" />
    </g>
    <g transform="translate(100 10)">
      <text x="0" y="42" font-family="Poppins, sans-serif" font-size="36" font-weight="700" fill="#111827">Saksham</text>
      <text x="0" y="82" font-family="Poppins, sans-serif" font-size="36" font-weight="700" fill="#1E3A8A">Bharat</text>
      <text x="0" y="106" font-family="Mukta, sans-serif" font-size="14" font-weight="500" fill="#475569">Learn, Sell, Grow — India empowered</text>
    </g>
  </g>
</svg>